<svg xmlns="http://www.w3.org/2000/svg" xmlns:xlink="http://www.w3.org/1999/xlink" viewBox="0 0 91.99 26.23"><defs><style>.cls-1{fill:url(#linear-gradient);}.cls-2{fill:url(#linear-gradient-2);}.cls-3{fill:url(#linear-gradient-3);}.cls-4{fill:url(#linear-gradient-4);}.cls-5{fill:url(#linear-gradient-5);}.cls-6{fill:url(#linear-gradient-6);}.cls-7{fill:none;}.cls-7,.cls-8{stroke:#000;stroke-miterlimit:10;}.cls-8{fill:#fff;stroke-linecap:round;}.cls-9{fill:url(#linear-gradient-7);}.cls-10{font-size:4.93px;fill:#231f20;font-family:ProximaSoft-Regular, Proxima Soft;}</style><linearGradient id="linear-gradient" x1="22.29" y1="-5.05" x2="20.08" y2="33.99" gradientTransform="translate(20.99 -8.54) rotate(45)" gradientUnits="userSpaceOnUse"><stop offset="0" stop-color="#55a53f"/><stop offset="0.33" stop-color="#f6eb33"/><stop offset="0.66" stop-color="#faa43b"/><stop offset="1" stop-color="#ed1c24"/></linearGradient><linearGradient id="linear-gradient-2" x1="16.8" y1="3.83" x2="15.52" y2="26.36" gradientTransform="translate(15.61 -6.91) rotate(45)" xlink:href="#linear-gradient"/><linearGradient id="linear-gradient-3" x1="14.61" y1="3.7" x2="13.34" y2="26.24" gradientTransform="translate(14.1 -5.77) rotate(45)" xlink:href="#linear-gradient"/><linearGradient id="linear-gradient-4" x1="12.49" y1="3.58" x2="11.21" y2="26.12" gradientTransform="translate(11.48 -5.23) rotate(45)" xlink:href="#linear-gradient"/><linearGradient id="linear-gradient-5" x1="8.24" y1="3.34" x2="6.97" y2="25.88" gradientTransform="matrix(1, 0, 0, 1, 0, 0)" xlink:href="#linear-gradient"/><linearGradient id="linear-gradient-6" x1="17.01" y1="3.84" x2="15.74" y2="26.37" gradientTransform="matrix(1, 0, 0, 1, 0, 0)" xlink:href="#linear-gradient"/><linearGradient id="linear-gradient-7" x1="7.54" y1="2.48" x2="6.26" y2="25.01" gradientTransform="matrix(1, 0, 0, 1, 0, 0)" xlink:href="#linear-gradient"/></defs><title>sci-unit-tag</title><g id="Layer_2" data-name="Layer 2"><g id="Layer_1-2" data-name="Layer 1"><rect class="cls-1" x="20.04" y="15.24" width="1.55" height="11.65" transform="translate(-8.8 20.88) rotate(-45)"/><rect class="cls-2" x="14.92" y="14.01" width="2.44" height="2.77" transform="translate(-6.16 15.93) rotate(-45)"/><rect class="cls-3" x="13.2" y="13.39" width="1.63" height="1.49" transform="translate(-5.89 14.06) rotate(-45)"/><rect class="cls-4" x="7.54" y="8.46" width="9.03" height="5.56" transform="translate(-4.42 11.81) rotate(-45)"/><path class="cls-5" d="M7.55,18.13,4.49,15.07a1.21,1.21,0,0,1,.47-2l1.19-.4A1.23,1.23,0,0,1,7.39,13l2.66,2.68.55.53a1.21,1.21,0,0,1,.29,1.24l-.4,1.19a1.2,1.2,0,0,1-2,.47Z"/><path class="cls-6" d="M16.82,4.62l3.06,3.07a1.21,1.21,0,0,1-.47,2l-1.19.39A1.19,1.19,0,0,1,17,9.79L14.33,7.12l-.55-.54a1.18,1.18,0,0,1-.3-1.23l.4-1.2a1.21,1.21,0,0,1,2-.47Z"/><path class="cls-7" d="M2.6,13.18l5.9,5.89a1.2,1.2,0,0,0,2-.47l.4-1.19a1.17,1.17,0,0,0-.29-1.23L5.1,10.69l-.54-.55a1.2,1.2,0,0,0-1.23-.3l-1.2.4a1.21,1.21,0,0,0-.47,2Z"/><path class="cls-7" d="M14,1.8l5.89,5.89a1.21,1.21,0,0,1-.47,2l-1.19.39A1.19,1.19,0,0,1,17,9.79L11.5,4.29,11,3.75a1.18,1.18,0,0,1-.3-1.23l.4-1.2a1.21,1.21,0,0,1,2-.47Z"/><rect class="cls-7" x="19.84" y="14.61" width="3.01" height="11.87" rx="0.74" transform="translate(-8.27 21.11) rotate(-45)"/><rect class="cls-7" x="14.61" y="14.2" width="3.17" height="2.36" transform="translate(16.76 37.71) rotate(-135)"/><path class="cls-7" d="M4.33,9.92l6.4-6.4L17.21,10l-2.13,2.13.65.66a.74.74,0,0,1,0,1l-1.08,1.08a.74.74,0,0,1-1,0L13,14.27,10.82,16.4Z"/><line class="cls-8" x1="12.16" y1="4.97" x2="8.54" y2="8.59"/><line class="cls-8" x1="16.56" y1="6.87" x2="11.12" y2="1.43"/><line class="cls-8" x1="7.68" y1="15.75" x2="2.24" y2="10.31"/><line class="cls-7" x1="15.75" y1="11.47" x2="12.29" y2="14.93"/><circle cx="7.14" cy="10" r="0.5"/><path class="cls-9" d="M.69,24l1.25-1.79a1.07,1.07,0,0,1,.89-.47h6.9a1.1,1.1,0,0,1,.89.47L11.87,24a1.06,1.06,0,0,1,.19.62h0A1.09,1.09,0,0,1,11,25.73H1.59A1.09,1.09,0,0,1,.5,24.64h0A1.13,1.13,0,0,1,.69,24Z"/><path class="cls-7" d="M.69,24l1.25-1.79a1.07,1.07,0,0,1,.89-.47h11.9a1.1,1.1,0,0,1,.89.47L16.87,24a1.06,1.06,0,0,1,.19.62h0A1.09,1.09,0,0,1,16,25.73H1.59A1.09,1.09,0,0,1,.5,24.64h0A1.13,1.13,0,0,1,.69,24Z"/><line class="cls-8" x1="4.88" y1="23.74" x2="16.57" y2="23.74"/><path d="M30.25,15.45a.6.6,0,0,1,.58-.6.7.7,0,0,1,.42.14,5.49,5.49,0,0,0,3.92,1.64c2.84,0,3.65-1.57,3.65-2.75,0-2-1.85-2.49-3.8-3-2.18-.6-4.5-1.23-4.5-3.78,0-2.26,2-3.69,4.61-3.69A6,6,0,0,1,39.4,5a.55.55,0,0,1,.23.43A.6.6,0,0,1,39,6a.48.48,0,0,1-.38-.14,4.9,4.9,0,0,0-3.59-1.39c-1.91,0-3.3,1.06-3.3,2.55,0,1.64,1.73,2.12,3.61,2.61,2.24.65,4.69,1.35,4.69,4.15,0,1.79-1.18,3.92-4.91,3.92a6.57,6.57,0,0,1-4.71-1.82A.53.53,0,0,1,30.25,15.45Z"/><path d="M47.16,7.2a4.06,4.06,0,0,1,3.23,1.34.58.58,0,0,1,.15.36.48.48,0,0,1-.5.49.42.42,0,0,1-.33-.14,3.13,3.13,0,0,0-2.49-1.08c-2.34,0-3.77,1.87-3.77,4.27s1.43,4.3,3.77,4.3a3.09,3.09,0,0,0,2.47-1.1.56.56,0,0,1,.35-.15.48.48,0,0,1,.5.5.5.5,0,0,1-.15.37,4.14,4.14,0,0,1-3.23,1.35c-2.95,0-4.88-2.34-4.88-5.27S44.21,7.2,47.16,7.2Z"/><path d="M52.82,4.54a.85.85,0,0,1,.83-.83.83.83,0,0,1,0,1.66A.85.85,0,0,1,52.82,4.54ZM53.11,17V7.92a.54.54,0,0,1,1.08,0V17a.54.54,0,0,1-1.08,0Z"/><path d="M57.59,4.17a.61.61,0,0,1,1.21,0v8c0,2.8,1.47,4.5,4.19,4.5s4.19-1.7,4.19-4.5v-8a.6.6,0,0,1,.6-.6.58.58,0,0,1,.6.6v8c0,3.43-1.82,5.56-5.39,5.56s-5.4-2.15-5.4-5.56Z"/><path d="M79.63,10.45V17a.54.54,0,1,1-1.08,0V10.68c0-1.93-1-2.51-2.43-2.51a4.31,4.31,0,0,0-3.26,1.72V17a.54.54,0,1,1-1.07,0V7.92a.54.54,0,1,1,1.07,0V9A5.09,5.09,0,0,1,76.47,7.2C78.51,7.2,79.63,8.19,79.63,10.45Z"/><path d="M82.7,4.54a.83.83,0,1,1,.83.83A.84.84,0,0,1,82.7,4.54ZM83,17V7.92a.54.54,0,0,1,1.08,0V17A.54.54,0,1,1,83,17Z"/><path d="M91.25,16.9a.46.46,0,0,1-.25.42,2.32,2.32,0,0,1-1.39.39c-1.33,0-2-.81-2-2.18V8.4H86.41a.48.48,0,1,1,0-1h1.23V5.18a.55.55,0,0,1,1.1,0V7.44h1.59a.48.48,0,1,1,0,1H88.74v7c0,.81.33,1.37,1,1.37s.75-.31,1-.31A.47.47,0,0,1,91.25,16.9Z"/><text class="cls-10" transform="translate(31 24.17) scale(1.01 1)">Model validation for science</text></g></g></svg>