<svg xmlns="http://www.w3.org/2000/svg" xmlns:xlink="http://www.w3.org/1999/xlink" viewBox="0 0 40.73 40.83"><defs><style>.cls-1{fill:url(#linear-gradient);}.cls-2{fill:url(#linear-gradient-2);}.cls-3{fill:url(#linear-gradient-3);}.cls-4{fill:url(#linear-gradient-4);}.cls-5{fill:url(#linear-gradient-5);}.cls-6{fill:url(#linear-gradient-6);}.cls-7{fill:none;}.cls-7,.cls-8{stroke:#000;stroke-miterlimit:10;}.cls-8{fill:#fff;stroke-linecap:round;}.cls-9{fill:url(#linear-gradient-7);}</style><linearGradient id="linear-gradient" x1="29.14" y1="-5.05" x2="26.93" y2="33.99" gradientTransform="translate(23 -13.39) rotate(45)" gradientUnits="userSpaceOnUse"><stop offset="0" stop-color="#55a53f"/><stop offset="0.33" stop-color="#f6eb33"/><stop offset="0.66" stop-color="#faa43b"/><stop offset="1" stop-color="#ed1c24"/></linearGradient><linearGradient id="linear-gradient-2" x1="23.65" y1="3.83" x2="22.37" y2="26.36" gradientTransform="translate(17.62 -11.75) rotate(45)" xlink:href="#linear-gradient"/><linearGradient id="linear-gradient-3" x1="21.46" y1="3.7" x2="20.19" y2="26.24" gradientTransform="translate(16.11 -10.62) rotate(45)" xlink:href="#linear-gradient"/><linearGradient id="linear-gradient-4" x1="19.34" y1="3.58" x2="18.06" y2="26.12" gradientTransform="translate(13.49 -10.07) rotate(45)" xlink:href="#linear-gradient"/><linearGradient id="linear-gradient-5" x1="15.09" y1="3.34" x2="13.82" y2="25.88" gradientTransform="matrix(1, 0, 0, 1, 0, 0)" xlink:href="#linear-gradient"/><linearGradient id="linear-gradient-6" x1="23.86" y1="3.84" x2="22.59" y2="26.37" gradientTransform="matrix(1, 0, 0, 1, 0, 0)" xlink:href="#linear-gradient"/><linearGradient id="linear-gradient-7" x1="14.39" y1="2.48" x2="13.11" y2="25.01" gradientTransform="matrix(1, 0, 0, 1, 0, 0)" xlink:href="#linear-gradient"/></defs><title>sci-unit-square</title><g id="Layer_2" data-name="Layer 2"><g id="Layer_1-2" data-name="Layer 1"><path d="M0,39.32a.4.4,0,0,1,.39-.41.44.44,0,0,1,.27.1,3.69,3.69,0,0,0,2.62,1.1c1.9,0,2.44-1.06,2.44-1.85,0-1.3-1.23-1.66-2.53-2-1.46-.4-3-.81-3-2.52,0-1.51,1.36-2.46,3.08-2.46a4,4,0,0,1,2.85,1.06.38.38,0,0,1,.15.3.4.4,0,0,1-.4.38.31.31,0,0,1-.25-.09A3.3,3.3,0,0,0,3.21,32c-1.27,0-2.2.7-2.2,1.7s1.15,1.42,2.41,1.75c1.5.43,3.13.9,3.13,2.77,0,1.19-.79,2.62-3.28,2.62A4.43,4.43,0,0,1,.12,39.61.37.37,0,0,1,0,39.32Z"/><path d="M11.29,33.8a2.75,2.75,0,0,1,2.16.9.39.39,0,0,1,.1.24.32.32,0,0,1-.33.33.29.29,0,0,1-.23-.1,2.1,2.1,0,0,0-1.66-.72,2.58,2.58,0,0,0-2.52,2.86,2.59,2.59,0,0,0,2.52,2.86A2.05,2.05,0,0,0,13,39.44a.4.4,0,0,1,.24-.1.32.32,0,0,1,.33.34.37.37,0,0,1-.1.25,2.78,2.78,0,0,1-2.16.9A3.28,3.28,0,0,1,8,37.31,3.27,3.27,0,0,1,11.29,33.8Z"/><path d="M15.07,32a.57.57,0,0,1,.56-.55.55.55,0,0,1,0,1.1A.57.57,0,0,1,15.07,32Zm.2,8.31V34.29a.36.36,0,0,1,.36-.36.36.36,0,0,1,.36.36v6.05a.36.36,0,0,1-.36.36A.36.36,0,0,1,15.27,40.34Z"/><path d="M18.26,31.78a.4.4,0,1,1,.8,0V37.1c0,1.87,1,3,2.8,3s2.8-1.14,2.8-3V31.78a.4.4,0,0,1,.4-.4.39.39,0,0,1,.4.4v5.33c0,2.29-1.22,3.72-3.6,3.72s-3.6-1.44-3.6-3.72Z"/><path d="M33,36v4.36a.36.36,0,0,1-.72,0V36.13c0-1.29-.65-1.68-1.62-1.68a2.84,2.84,0,0,0-2.17,1.15v4.74a.36.36,0,0,1-.36.36.36.36,0,0,1-.36-.36V34.29a.36.36,0,0,1,.36-.36.36.36,0,0,1,.36.36V35a3.39,3.39,0,0,1,2.41-1.18C32.22,33.8,33,34.47,33,36Z"/><path d="M35,32a.57.57,0,0,1,.56-.55.55.55,0,1,1,0,1.1A.57.57,0,0,1,35,32Zm.2,8.31V34.29a.36.36,0,0,1,.36-.36.36.36,0,0,1,.36.36v6.05a.36.36,0,0,1-.36.36A.36.36,0,0,1,35.22,40.34Z"/><path d="M40.73,40.29a.29.29,0,0,1-.17.27,1.48,1.48,0,0,1-.92.27c-.89,0-1.32-.54-1.32-1.46V34.61H37.5a.32.32,0,1,1,0-.64h.82V32.46a.37.37,0,0,1,.37-.36.36.36,0,0,1,.36.36V34h1.07a.32.32,0,1,1,0,.64H39.05v4.65c0,.54.23.91.7.91s.49-.2.66-.2A.32.32,0,0,1,40.73,40.29Z"/><rect class="cls-1" x="26.89" y="15.24" width="1.55" height="11.65" transform="translate(-6.79 25.73) rotate(-45)"/><rect class="cls-2" x="21.77" y="14.01" width="2.44" height="2.77" transform="translate(-4.15 20.77) rotate(-45)"/><rect class="cls-3" x="20.06" y="13.39" width="1.63" height="1.49" transform="translate(-3.88 18.9) rotate(-45)"/><rect class="cls-4" x="14.39" y="8.46" width="9.03" height="5.56" transform="translate(-2.41 16.66) rotate(-45)"/><path class="cls-5" d="M14.4,18.13l-3.06-3.06a1.21,1.21,0,0,1,.47-2l1.19-.4a1.23,1.23,0,0,1,1.24.29l2.66,2.68.55.53a1.23,1.23,0,0,1,.3,1.24l-.41,1.19a1.2,1.2,0,0,1-2,.47Z"/><path class="cls-6" d="M23.67,4.62l3.06,3.07a1.21,1.21,0,0,1-.47,2l-1.19.39a1.19,1.19,0,0,1-1.24-.29L21.18,7.12l-.55-.54a1.18,1.18,0,0,1-.3-1.23l.4-1.2a1.21,1.21,0,0,1,2-.47Z"/><path class="cls-7" d="M9.45,13.18l5.9,5.89a1.2,1.2,0,0,0,2-.47l.4-1.19a1.17,1.17,0,0,0-.29-1.23L12,10.69l-.54-.55a1.2,1.2,0,0,0-1.23-.3l-1.2.4a1.21,1.21,0,0,0-.47,2Z"/><path class="cls-7" d="M20.84,1.8l5.89,5.89a1.21,1.21,0,0,1-.47,2l-1.19.39a1.19,1.19,0,0,1-1.24-.29l-5.48-5.5-.55-.54a1.2,1.2,0,0,1-.3-1.23l.4-1.2a1.21,1.21,0,0,1,2-.47Z"/><rect class="cls-7" x="26.69" y="14.61" width="3.01" height="11.87" rx="0.74" transform="translate(-6.27 25.96) rotate(-45)"/><rect class="cls-7" x="21.46" y="14.2" width="3.17" height="2.36" transform="translate(28.46 42.55) rotate(-135)"/><path class="cls-7" d="M11.18,9.92l6.4-6.4L24.06,10l-2.13,2.13.65.66a.74.74,0,0,1,0,1L21.5,14.93a.74.74,0,0,1-1,0l-.66-.66L17.67,16.4Z"/><line class="cls-8" x1="19.01" y1="4.97" x2="15.39" y2="8.59"/><line class="cls-8" x1="23.41" y1="6.87" x2="17.97" y2="1.43"/><line class="cls-8" x1="14.53" y1="15.75" x2="9.09" y2="10.31"/><line class="cls-7" x1="22.6" y1="11.47" x2="19.14" y2="14.93"/><circle cx="13.99" cy="10" r="0.5"/><path class="cls-9" d="M7.55,24l1.24-1.79a1.07,1.07,0,0,1,.89-.47h6.9a1.1,1.1,0,0,1,.89.47L18.72,24a1.06,1.06,0,0,1,.19.62h0a1.09,1.09,0,0,1-1.09,1.09H8.44a1.09,1.09,0,0,1-1.09-1.09h0A1.07,1.07,0,0,1,7.55,24Z"/><path class="cls-7" d="M7.55,24l1.24-1.79a1.07,1.07,0,0,1,.89-.47h11.9a1.1,1.1,0,0,1,.89.47L23.72,24a1.06,1.06,0,0,1,.19.62h0a1.09,1.09,0,0,1-1.09,1.09H8.44a1.09,1.09,0,0,1-1.09-1.09h0A1.07,1.07,0,0,1,7.55,24Z"/><line class="cls-8" x1="11.73" y1="23.74" x2="23.42" y2="23.74"/></g></g></svg>