<svg xmlns="http://www.w3.org/2000/svg" xmlns:xlink="http://www.w3.org/1999/xlink" viewBox="0 0 332.05 65"><defs><style>.cls-1{fill:url(#linear-gradient);}.cls-2{fill:url(#linear-gradient-2);}.cls-3{fill:url(#linear-gradient-3);}.cls-4{fill:url(#linear-gradient-4);}.cls-5{fill:url(#linear-gradient-5);}.cls-6{fill:url(#linear-gradient-6);}.cls-7{fill:url(#linear-gradient-7);}.cls-8{fill:url(#linear-gradient-8);}.cls-9{fill:url(#linear-gradient-9);}.cls-10{fill:url(#linear-gradient-10);}.cls-11{fill:url(#linear-gradient-11);}.cls-12{fill:url(#linear-gradient-12);}.cls-13{fill:url(#linear-gradient-13);}.cls-14{fill:url(#linear-gradient-14);}.cls-15{fill:url(#linear-gradient-15);}.cls-16{fill:url(#linear-gradient-16);}.cls-17{fill:url(#linear-gradient-17);}.cls-18{fill:url(#linear-gradient-18);}.cls-19{fill:url(#linear-gradient-19);}.cls-20{fill:url(#linear-gradient-20);}.cls-21{fill:url(#linear-gradient-21);}.cls-22{fill:url(#linear-gradient-22);}.cls-23{fill:url(#linear-gradient-23);}.cls-24{fill:url(#linear-gradient-24);}.cls-25{fill:url(#linear-gradient-25);}.cls-26{fill:url(#linear-gradient-26);}.cls-27{fill:url(#linear-gradient-27);}.cls-28{fill:url(#linear-gradient-28);}.cls-29{fill:url(#linear-gradient-29);}.cls-30{font-size:12px;font-family:ProximaSoft-Regular, Proxima Soft;}.cls-30,.cls-31{fill:#231f20;}</style><linearGradient id="linear-gradient" x1="1.67" y1="36.93" x2="1.67" y2="-19.97" gradientUnits="userSpaceOnUse"><stop offset="0" stop-color="#ed1c24"/><stop offset="0.23" stop-color="#fbb040"/><stop offset="0.65" stop-color="#f9ed32"/><stop offset="1" stop-color="#8dc63f"/></linearGradient><linearGradient id="linear-gradient-2" x1="6.48" y1="41.36" x2="6.48" y2="-4.64" gradientUnits="userSpaceOnUse"><stop offset="0" stop-color="#ed1c24"/><stop offset="0.26" stop-color="#fbb040"/><stop offset="0.62" stop-color="#f9ed32"/><stop offset="1" stop-color="#8dc63f"/></linearGradient><linearGradient id="linear-gradient-3" x1="11.3" y1="42.38" x2="11.3" y2="-1.22" gradientUnits="userSpaceOnUse"><stop offset="0" stop-color="#ed1c24"/><stop offset="0.22" stop-color="#fbb040"/><stop offset="0.29" stop-color="#fac43b"/><stop offset="0.39" stop-color="#fadb36"/><stop offset="0.48" stop-color="#f9e833"/><stop offset="0.57" stop-color="#f9ed32"/><stop offset="1" stop-color="#8dc63f"/></linearGradient><linearGradient id="linear-gradient-4" x1="16.11" y1="43.4" x2="16.11" y2="0.48" gradientUnits="userSpaceOnUse"><stop offset="0" stop-color="#ed1c24"/><stop offset="0.25" stop-color="#fbb040"/><stop offset="0.27" stop-color="#fbbc3d"/><stop offset="0.33" stop-color="#fad238"/><stop offset="0.39" stop-color="#f9e135"/><stop offset="0.46" stop-color="#f9ea33"/><stop offset="0.57" stop-color="#f9ed32"/><stop offset="1" stop-color="#8dc63f"/></linearGradient><linearGradient id="linear-gradient-5" x1="20.92" y1="54.64" x2="20.92" y2="1.37" gradientUnits="userSpaceOnUse"><stop offset="0" stop-color="#ed1c24"/><stop offset="0.33" stop-color="#fbb040"/><stop offset="0.36" stop-color="#fbb63f"/><stop offset="0.48" stop-color="#fad438"/><stop offset="0.58" stop-color="#f9e633"/><stop offset="0.65" stop-color="#f9ed32"/><stop offset="1" stop-color="#8dc63f"/></linearGradient><linearGradient id="linear-gradient-6" x1="25.74" y1="57.02" x2="25.74" y2="1.54" gradientUnits="userSpaceOnUse"><stop offset="0" stop-color="#ed1c24"/><stop offset="0.34" stop-color="#fbb040"/><stop offset="0.39" stop-color="#fac13c"/><stop offset="0.49" stop-color="#fad937"/><stop offset="0.58" stop-color="#f9e833"/><stop offset="0.65" stop-color="#f9ed32"/><stop offset="1" stop-color="#8dc63f"/></linearGradient><linearGradient id="linear-gradient-7" x1="30.55" y1="58.04" x2="30.55" y2="1.71" gradientUnits="userSpaceOnUse"><stop offset="0" stop-color="#ed1c24"/><stop offset="0.33" stop-color="#fbb040"/><stop offset="0.36" stop-color="#fbb83e"/><stop offset="0.48" stop-color="#fad538"/><stop offset="0.59" stop-color="#f9e733"/><stop offset="0.67" stop-color="#f9ed32"/><stop offset="1" stop-color="#8dc63f"/></linearGradient><linearGradient id="linear-gradient-8" x1="35.36" y1="57.02" x2="35.36" y2="1.51" gradientUnits="userSpaceOnUse"><stop offset="0" stop-color="#ed1c24"/><stop offset="0.33" stop-color="#fbb040"/><stop offset="0.4" stop-color="#fac93a"/><stop offset="0.48" stop-color="#fadd36"/><stop offset="0.56" stop-color="#f9e933"/><stop offset="0.64" stop-color="#f9ed32"/><stop offset="1" stop-color="#8dc63f"/></linearGradient><linearGradient id="linear-gradient-9" x1="40.18" y1="56.34" x2="40.18" y2="2.05" gradientUnits="userSpaceOnUse"><stop offset="0" stop-color="#ed1c24"/><stop offset="0.32" stop-color="#fbb040"/><stop offset="0.32" stop-color="#fbb040"/><stop offset="0.45" stop-color="#fad138"/><stop offset="0.56" stop-color="#f9e634"/><stop offset="0.64" stop-color="#f9ed32"/><stop offset="1" stop-color="#8dc63f"/></linearGradient><linearGradient id="linear-gradient-10" x1="44.99" y1="54.64" x2="44.99" y2="2.22" gradientUnits="userSpaceOnUse"><stop offset="0" stop-color="#ed1c24"/><stop offset="0.31" stop-color="#fbb040"/><stop offset="0.36" stop-color="#fac13c"/><stop offset="0.46" stop-color="#fad937"/><stop offset="0.55" stop-color="#f9e833"/><stop offset="0.62" stop-color="#f9ed32"/><stop offset="1" stop-color="#8dc63f"/></linearGradient><linearGradient id="linear-gradient-11" x1="49.81" y1="60.09" x2="49.81" y2="2.9" gradientUnits="userSpaceOnUse"><stop offset="0" stop-color="#ed1c24"/><stop offset="0.32" stop-color="#fbb040"/><stop offset="0.67" stop-color="#f9ed32"/><stop offset="1" stop-color="#8dc63f"/></linearGradient><linearGradient id="linear-gradient-12" x1="54.62" y1="63.15" x2="54.62" y2="1.88" gradientUnits="userSpaceOnUse"><stop offset="0" stop-color="#ed1c24"/><stop offset="0.31" stop-color="#fbb040"/><stop offset="0.46" stop-color="#facc39"/><stop offset="0.62" stop-color="#f9e434"/><stop offset="0.72" stop-color="#f9ed32"/><stop offset="1" stop-color="#8dc63f"/></linearGradient><linearGradient id="linear-gradient-13" x1="59.43" y1="60.09" x2="59.43" y2="2.39" gradientUnits="userSpaceOnUse"><stop offset="0" stop-color="#ed1c24"/><stop offset="0.32" stop-color="#fbb040"/><stop offset="0.34" stop-color="#fbb73e"/><stop offset="0.42" stop-color="#facf39"/><stop offset="0.51" stop-color="#f9e035"/><stop offset="0.6" stop-color="#f9ea33"/><stop offset="0.72" stop-color="#f9ed32"/><stop offset="1" stop-color="#8dc63f"/></linearGradient><linearGradient id="linear-gradient-14" x1="64.25" y1="55.66" x2="64.25" y2="-2.61" gradientUnits="userSpaceOnUse"><stop offset="0" stop-color="#ed1c24"/><stop offset="0.32" stop-color="#fbb040"/><stop offset="0.32" stop-color="#fbb140"/><stop offset="0.4" stop-color="#facb3a"/><stop offset="0.48" stop-color="#f9de35"/><stop offset="0.56" stop-color="#f9e933"/><stop offset="0.65" stop-color="#f9ed32"/><stop offset="1" stop-color="#8dc63f"/></linearGradient><linearGradient id="linear-gradient-15" x1="69.06" y1="53.96" x2="69.06" y2="-3.31" gradientUnits="userSpaceOnUse"><stop offset="0" stop-color="#ed1c24"/><stop offset="0.31" stop-color="#fbb040"/><stop offset="0.38" stop-color="#fac63b"/><stop offset="0.48" stop-color="#fadc36"/><stop offset="0.57" stop-color="#f9e933"/><stop offset="0.65" stop-color="#f9ed32"/><stop offset="1" stop-color="#8dc63f"/></linearGradient><linearGradient id="linear-gradient-16" x1="-29.22" y1="2432.06" x2="11.6" y2="2391.24" gradientTransform="translate(82.97 -2390.88)" gradientUnits="userSpaceOnUse"><stop offset="0" stop-color="#ed1c24"/><stop offset="0.34" stop-color="#fbb040"/><stop offset="0.55" stop-color="#f9ed32"/><stop offset="1" stop-color="#8dc63f"/></linearGradient><linearGradient id="linear-gradient-17" x1="20.92" y1="54.64" x2="20.92" y2="-2.92" gradientUnits="userSpaceOnUse"><stop offset="0" stop-color="#ed1c24"/><stop offset="0.32" stop-color="#fbb040"/><stop offset="0.63" stop-color="#f9ed32"/><stop offset="1" stop-color="#8dc63f"/></linearGradient><linearGradient id="linear-gradient-18" x1="25.74" y1="57.02" x2="25.74" y2="-0.54" gradientUnits="userSpaceOnUse"><stop offset="0" stop-color="#ed1c24"/><stop offset="0.3" stop-color="#fbb040"/><stop offset="0.64" stop-color="#f9ed32"/><stop offset="1" stop-color="#8dc63f"/></linearGradient><linearGradient id="linear-gradient-19" x1="30.55" y1="58.04" x2="30.55" y2="0.09" gradientUnits="userSpaceOnUse"><stop offset="0" stop-color="#ed1c24"/><stop offset="0.32" stop-color="#fbb040"/><stop offset="0.62" stop-color="#f9ed32"/><stop offset="1" stop-color="#8dc63f"/></linearGradient><linearGradient id="linear-gradient-20" x1="35.36" y1="57.02" x2="35.36" y2="0.14" gradientUnits="userSpaceOnUse"><stop offset="0" stop-color="#ed1c24"/><stop offset="0.33" stop-color="#fbb040"/><stop offset="0.64" stop-color="#f9ed32"/><stop offset="1" stop-color="#8dc63f"/></linearGradient><linearGradient id="linear-gradient-21" x1="40.18" y1="56.34" x2="40.18" y2="5.25" gradientUnits="userSpaceOnUse"><stop offset="0" stop-color="#ed1c24"/><stop offset="0.32" stop-color="#fbb040"/><stop offset="0.64" stop-color="#f9ed32"/><stop offset="1" stop-color="#8dc63f"/></linearGradient><linearGradient id="linear-gradient-22" x1="44.99" y1="54.64" x2="44.99" y2="1.51" gradientUnits="userSpaceOnUse"><stop offset="0" stop-color="#ed1c24"/><stop offset="0.31" stop-color="#fbb040"/><stop offset="0.61" stop-color="#f9ed32"/><stop offset="1" stop-color="#8dc63f"/></linearGradient><linearGradient id="linear-gradient-23" x1="49.81" y1="60.09" x2="49.81" y2="-10.42" gradientUnits="userSpaceOnUse"><stop offset="0" stop-color="#ed1c24"/><stop offset="0.33" stop-color="#fbb040"/><stop offset="0.65" stop-color="#f9ed32"/><stop offset="1" stop-color="#8dc63f"/></linearGradient><linearGradient id="linear-gradient-24" x1="54.62" y1="63.15" x2="54.62" y2="-1.22" gradientUnits="userSpaceOnUse"><stop offset="0" stop-color="#ed1c24"/><stop offset="0.33" stop-color="#fbb040"/><stop offset="0.66" stop-color="#f9ed32"/><stop offset="1" stop-color="#8dc63f"/></linearGradient><linearGradient id="linear-gradient-25" x1="59.43" y1="60.09" x2="59.43" y2="2.52" gradientUnits="userSpaceOnUse"><stop offset="0" stop-color="#ed1c24"/><stop offset="0.33" stop-color="#fbb040"/><stop offset="0.64" stop-color="#f9ed32"/><stop offset="1" stop-color="#8dc63f"/></linearGradient><linearGradient id="linear-gradient-26" x1="64.25" y1="55.66" x2="64.25" y2="-6.33" gradientUnits="userSpaceOnUse"><stop offset="0" stop-color="#ed1c24"/><stop offset="0.32" stop-color="#fbb040"/><stop offset="0.64" stop-color="#f9ed32"/><stop offset="1" stop-color="#8dc63f"/></linearGradient><linearGradient id="linear-gradient-27" x1="69.06" y1="53.96" x2="69.06" y2="-3.31" gradientUnits="userSpaceOnUse"><stop offset="0" stop-color="#ed1c24"/><stop offset="0.32" stop-color="#fbb040"/><stop offset="0.65" stop-color="#f9ed32"/><stop offset="1" stop-color="#8dc63f"/></linearGradient><linearGradient id="linear-gradient-28" x1="73.87" y1="50.89" x2="73.87" y2="-6.33" gradientUnits="userSpaceOnUse"><stop offset="0" stop-color="#ed1c24"/><stop offset="0.34" stop-color="#fbb040"/><stop offset="0.64" stop-color="#f9ed32"/><stop offset="1" stop-color="#8dc63f"/></linearGradient><linearGradient id="linear-gradient-29" x1="78.69" y1="44.42" x2="78.69" y2="-12.82" gradientUnits="userSpaceOnUse"><stop offset="0" stop-color="#ed1c24"/><stop offset="0.33" stop-color="#fbb040"/><stop offset="0.65" stop-color="#f9ed32"/><stop offset="1" stop-color="#8dc63f"/></linearGradient></defs><title>NeuronUnitBlack2</title><g id="Layer_2" data-name="Layer 2"><g id="Layer_1-2" data-name="Layer 1"><rect class="cls-1" y="24.16" width="3.34" height="14.14" rx="1.63" ry="1.63"/><rect class="cls-2" x="4.81" y="14.39" width="3.34" height="28.41" rx="1.63" ry="1.63"/><rect class="cls-3" x="9.63" y="10.24" width="3.34" height="33.48" rx="1.63" ry="1.63"/><rect class="cls-4" x="14.44" y="7.41" width="3.34" height="37.31" rx="1.63" ry="1.63"/><rect class="cls-5" x="19.25" y="4.32" width="3.34" height="35.23" rx="1.63" ry="1.63"/><rect class="cls-6" x="24.07" y="1.72" width="3.34" height="35.55" rx="1.63" ry="1.63"/><rect class="cls-7" x="28.88" y="1.23" width="3.34" height="32.69" rx="1.63" ry="1.63"/><rect class="cls-8" x="33.7" y="0.69" width="3.34" height="31.52" rx="1.63" ry="1.63"/><rect class="cls-9" x="38.51" width="3.34" height="29.7" rx="1.63" ry="1.63"/><rect class="cls-10" x="43.32" width="3.34" height="27.37" rx="1.63" ry="1.63"/><rect class="cls-11" x="48.14" y="1.95" width="3.34" height="27.75" rx="1.63" ry="1.63"/><rect class="cls-12" x="52.95" y="3.64" width="3.34" height="28.57" rx="1.63" ry="1.63"/><rect class="cls-13" x="57.76" y="5.33" width="3.34" height="29.13" rx="1.63" ry="1.63"/><rect class="cls-14" x="62.58" y="8.99" width="3.34" height="22.24" rx="1.63" ry="1.63"/><rect class="cls-15" x="67.39" y="14.39" width="3.34" height="12.6" rx="1.63" ry="1.63"/><rect class="cls-16" x="72.2" y="19.39" width="3.34" height="3.34" rx="1.63" ry="1.63" transform="translate(6.74 58.41) rotate(-45)"/><rect class="cls-17" x="19.25" y="41.68" width="3.34" height="15.2" rx="1.63" ry="1.63"/><rect class="cls-18" x="24.07" y="39" width="3.34" height="20.08" rx="1.63" ry="1.63"/><rect class="cls-19" x="28.88" y="35.62" width="3.34" height="25.14" rx="1.63" ry="1.63"/><rect class="cls-20" x="33.7" y="34" width="3.34" height="25.11" rx="1.63" ry="1.63"/><rect class="cls-21" x="38.51" y="31.63" width="3.34" height="25.99" rx="1.63" ry="1.63"/><rect class="cls-22" x="43.32" y="29.42" width="3.34" height="26.85" rx="1.63" ry="1.63"/><rect class="cls-23" x="48.14" y="31.63" width="3.34" height="30.32" rx="1.63" ry="1.63"/><rect class="cls-24" x="52.95" y="34" width="3.34" height="31" rx="1.63" ry="1.63"/><rect class="cls-25" x="57.76" y="36.09" width="3.34" height="25.86" rx="1.63" ry="1.63"/><rect class="cls-26" x="62.58" y="32.7" width="3.34" height="25.01" rx="1.63" ry="1.63"/><rect class="cls-27" x="67.39" y="28.45" width="3.34" height="27.28" rx="1.63" ry="1.63"/><rect class="cls-28" x="72.2" y="24.16" width="3.34" height="28.96" rx="1.63" ry="1.63"/><rect class="cls-29" x="77.02" y="24.94" width="3.34" height="21.31" rx="1.63" ry="1.63"/><text class="cls-30" transform="translate(90.44 58.76)">Data driven model validation for neuroscience</text><path class="cls-31" d="M113.91,43.64,93.3,15.35V42.94a1.44,1.44,0,0,1-1.4,1.45,1.49,1.49,0,0,1-1.45-1.45V12.54a1.86,1.86,0,0,1,1.86-1.91,1.93,1.93,0,0,1,1.56.8l20.46,27.84V12.09a1.41,1.41,0,0,1,1.4-1.45,1.46,1.46,0,0,1,1.45,1.45V42.59a1.82,1.82,0,0,1-1.76,1.81A1.78,1.78,0,0,1,113.91,43.64Z"/><path class="cls-31" d="M132.89,19.42c7.37,0,11.44,5.87,11.44,12.09A1.38,1.38,0,0,1,142.77,33H124.07c.25,5.27,3.76,9.63,9.48,9.63a10.54,10.54,0,0,0,7.27-2.76.92.92,0,0,1,.65-.2,1,1,0,0,1,1.05,1.1,1.15,1.15,0,0,1-.4.85,12.64,12.64,0,0,1-8.78,3.26c-7.07,0-12.14-5.27-12.14-12.74C121.21,25.08,126.17,19.42,132.89,19.42ZM124.07,30.9h17.6c-.05-4.11-2.76-9.23-8.83-9.23C127.13,21.67,124.27,26.69,124.07,30.9Z"/><path class="cls-31" d="M167.22,21.17V43.09a1.3,1.3,0,1,1-2.61,0V40.68a12.2,12.2,0,0,1-8.73,4.16c-5,0-7.62-2.31-7.62-7.77V21.17a1.3,1.3,0,1,1,2.61,0v15.3c0,4.71,2.36,6,5.87,6a10.48,10.48,0,0,0,7.87-4V21.17a1.3,1.3,0,1,1,2.61,0Z"/><path class="cls-31" d="M183.55,21a1.47,1.47,0,0,1-1.56,1.3,9.19,9.19,0,0,0-6.82,4.31v16.5a1.3,1.3,0,1,1-2.61,0V21.17a1.3,1.3,0,1,1,2.61,0v3.06a11.14,11.14,0,0,1,5.92-4.41,3.5,3.5,0,0,1,1.15-.2A1.28,1.28,0,0,1,183.55,21Z"/><path class="cls-31" d="M184.28,32.1c0-7.07,4.56-12.69,11.64-12.69S207.6,25,207.6,32.1s-4.51,12.74-11.69,12.74S184.28,39.18,184.28,32.1Zm20.51,0c0-5.37-3.16-10.33-8.88-10.33s-8.83,5-8.83,10.33,3.21,10.38,8.83,10.38S204.79,37.52,204.79,32.1Z"/><path class="cls-31" d="M230.49,27.29v15.8a1.3,1.3,0,1,1-2.61,0V27.84c0-4.66-2.36-6.07-5.87-6.07a10.38,10.38,0,0,0-7.87,4.16V43.09a1.3,1.3,0,1,1-2.61,0V21.17a1.3,1.3,0,1,1,2.61,0v2.51a12.28,12.28,0,0,1,8.73-4.26C227.78,19.42,230.49,21.82,230.49,27.29Z"/><path class="cls-31" d="M235.93,12.09a1.45,1.45,0,1,1,2.91,0V31.35c0,6.77,3.56,10.88,10.13,10.88s10.13-4.11,10.13-10.88V12.09a1.46,1.46,0,0,1,1.45-1.45A1.42,1.42,0,0,1,262,12.09V31.4c0,8.28-4.41,13.44-13,13.44s-13-5.22-13-13.44Z"/><path class="cls-31" d="M286.42,27.29v15.8a1.3,1.3,0,1,1-2.61,0V27.84c0-4.66-2.36-6.07-5.87-6.07a10.38,10.38,0,0,0-7.87,4.16V43.09a1.3,1.3,0,1,1-2.61,0V21.17a1.3,1.3,0,1,1,2.61,0v2.51a12.28,12.28,0,0,1,8.73-4.26C283.71,19.42,286.42,21.82,286.42,27.29Z"/><path class="cls-31" d="M291.06,13a2,2,0,0,1,2-2,2,2,0,0,1,0,4A2,2,0,0,1,291.06,13Zm.7,30.09V21.17a1.3,1.3,0,1,1,2.61,0V43.09a1.3,1.3,0,1,1-2.61,0Z"/><path class="cls-31" d="M309.93,42.89a1.08,1.08,0,0,1-.6,1,5.57,5.57,0,0,1-3.36,1c-3.21,0-4.77-2-4.77-5.27V22.32h-3a1.15,1.15,0,1,1,0-2.31h3V14.55a1.33,1.33,0,0,1,2.66,0V20h3.86a1.15,1.15,0,1,1,0,2.31h-3.86V39.18c0,2,.8,3.31,2.51,3.31,1.45,0,1.81-.75,2.41-.75A1.14,1.14,0,0,1,309.93,42.89Z"/></g></g></svg>